<?xml version="1.0" standalone="no"?>
<!DOCTYPE svg PUBLIC "-//W3C//DTD SVG 20010904//EN"
 "http://www.w3.org/TR/2001/REC-SVG-20010904/DTD/svg10.dtd">
<svg version="1.0" xmlns="http://www.w3.org/2000/svg"
 width="500.000000pt" height="500.000000pt" viewBox="0 0 500.000000 500.000000"
 preserveAspectRatio="xMidYMid meet">

<g transform="translate(0.000000,500.000000) scale(0.100000,-0.100000)"
fill="#000000" stroke="none">
<path d="M2738 3789 c-165 -39 -236 -238 -133 -373 l33 -44 -29 -58 c-87 -171
-251 -302 -426 -339 -110 -24 -123 -21 -179 33 -79 76 -172 92 -270 46 l-54
-26 -40 32 c-64 50 -128 129 -168 207 l-37 72 22 23 c42 46 57 90 57 163 0 80
-13 113 -70 168 -70 67 -171 84 -259 43 -102 -47 -159 -157 -136 -262 13 -56
57 -126 91 -144 20 -10 20 -19 20 -405 0 -386 0 -395 -20 -405 -11 -6 -34 -29
-50 -51 -107 -149 -15 -354 169 -376 136 -16 261 100 261 241 0 55 -40 137
-84 172 l-36 29 0 214 0 213 55 -50 c30 -28 78 -65 105 -83 28 -18 50 -39 50
-46 0 -23 37 -87 67 -115 40 -39 100 -61 163 -61 69 0 117 20 168 71 37 37 45
40 113 47 184 17 336 84 492 217 l57 49 0 -210 0 -210 -35 -26 c-74 -57 -108
-192 -69 -283 19 -47 68 -98 117 -123 l37 -19 0 -344 0 -344 -33 -11 c-42 -14
-101 -74 -122 -123 -8 -21 -15 -61 -15 -90 1 -170 176 -278 327 -203 118 59
161 197 98 314 -27 49 -100 111 -132 111 -10 0 -13 29 -13 135 l0 135 113 0
113 0 12 -35 c30 -82 149 -145 247 -131 124 19 214 154 185 275 -34 142 -187
220 -315 162 -46 -21 -112 -89 -121 -126 -6 -25 -7 -25 -120 -25 l-114 0 0
149 0 149 34 12 c46 15 113 74 137 121 l19 39 195 0 195 0 0 -23 c0 -13 16
-42 36 -66 85 -99 210 -115 315 -39 72 52 109 173 78 255 -47 126 -194 189
-314 134 -49 -22 -104 -82 -112 -122 l-5 -29 -187 0 -187 0 -23 55 c-14 34
-38 68 -62 89 l-39 33 0 384 0 384 41 39 c97 91 106 228 21 326 -58 69 -150
99 -234 79z m140 -154 c72 -77 17 -195 -92 -195 -45 0 -92 39 -107 90 -10 32
-9 44 7 77 39 79 130 92 192 28z m-1538 -11 c66 -40 78 -129 24 -185 -53 -55
-143 -44 -184 23 -24 39 -25 69 -5 108 34 65 105 89 165 54z m576 -697 c67
-61 50 -159 -33 -194 -29 -12 -45 -13 -73 -4 -135 40 -108 231 33 231 28 0 46
-8 73 -33z m947 -507 c39 -44 37 -92 -7 -136 -24 -24 -43 -34 -66 -34 -108 0
-155 135 -66 191 45 29 102 20 139 -21z m807 27 c29 -15 70 -72 70 -99 0 -35
-32 -88 -61 -103 -49 -26 -97 -19 -135 19 -28 28 -34 42 -34 76 0 52 13 76 53
100 37 23 71 25 107 7z m-2308 -35 c56 -56 45 -146 -22 -186 -60 -35 -131 -11
-165 54 -19 37 -19 63 0 101 38 73 130 88 187 31z m1964 -548 c41 -20 64 -59
64 -110 0 -28 -8 -44 -34 -70 -29 -29 -41 -34 -79 -34 -130 0 -159 170 -37
219 35 14 47 13 86 -5z m-470 -578 c27 -27 34 -42 34 -74 0 -79 -83 -138 -152
-109 -53 23 -73 52 -73 109 0 43 4 53 33 79 26 23 42 29 78 29 39 0 51 -5 80
-34z"/>
</g>
</svg>
