<?xml version="1.0" standalone="no"?>
<!DOCTYPE svg PUBLIC "-//W3C//DTD SVG 20010904//EN"
 "http://www.w3.org/TR/2001/REC-SVG-20010904/DTD/svg10.dtd">
<svg version="1.0" xmlns="http://www.w3.org/2000/svg"
 width="96.000000pt" height="96.000000pt" viewBox="0 0 96.000000 96.000000"
 preserveAspectRatio="xMidYMid meet">

<g transform="translate(0.000000,96.000000) scale(0.100000,-0.100000)"
fill="#000000" stroke="none">
<path d="M506 714 c-18 -18 -21 -50 -6 -59 16 -10 -25 -60 -60 -75 -25 -10
-36 -10 -55 0 -13 7 -33 10 -44 7 -31 -8 -63 32 -55 71 8 38 -8 62 -41 62 -36
0 -51 -25 -37 -64 15 -41 16 -168 1 -183 -16 -16 -3 -60 21 -68 43 -14 81 40
49 72 -6 6 -9 28 -7 49 l3 39 32 -34 32 -35 58 19 c32 11 70 28 86 38 l27 18
0 -40 c0 -22 -4 -43 -10 -46 -15 -9 -12 -51 5 -65 17 -14 22 -150 5 -150 -16
0 -23 -49 -10 -65 20 -24 59 -19 72 10 10 22 8 29 -11 49 -13 13 -21 32 -19
43 3 19 48 32 48 14 0 -6 9 -15 20 -21 44 -23 83 38 45 70 -16 13 -65 6 -65
-10 0 -6 -11 -10 -25 -10 -20 0 -25 5 -25 23 0 52 89 90 120 51 17 -19 60 -14
74 9 24 38 -44 78 -74 43 -17 -21 -70 -20 -86 2 -16 20 -19 168 -4 177 17 11
11 54 -9 65 -27 14 -37 13 -55 -6z m54 -30 c0 -19 -28 -30 -42 -16 -8 8 -8 15
1 26 14 17 41 10 41 -10z m-293 0 c7 -20 -17 -37 -34 -23 -15 13 -6 39 13 39
8 0 17 -7 21 -16z m102 -128 c9 -10 8 -16 -4 -26 -19 -16 -41 1 -32 24 8 20
21 20 36 2z m-102 -102 c8 -22 -18 -37 -36 -20 -7 8 -10 19 -7 25 10 16 36 13
43 -5z m283 2 c0 -21 -21 -31 -30 -15 -5 7 -6 17 -4 21 9 14 34 9 34 -6z m168
-3 c5 -17 -26 -29 -40 -15 -6 6 -7 15 -3 22 9 14 37 9 43 -7z m-70 -116 c2
-12 -3 -17 -17 -17 -12 0 -21 6 -21 13 0 31 32 34 38 4z m-95 -93 c9 -10 -4
-34 -18 -34 -17 0 -28 17 -20 30 7 11 28 13 38 4z"/>
</g>
</svg>
