<?xml version="1.0" encoding="UTF-8"?>
<!DOCTYPE svg PUBLIC "-//W3C//DTD SVG 1.1//EN" "http://www.w3.org/Graphics/SVG/1.1/DTD/svg11.dtd">
<svg xmlns="http://www.w3.org/2000/svg" version="1.1" width="500px" height="500px" style="shape-rendering:geometricPrecision; text-rendering:geometricPrecision; image-rendering:optimizeQuality; fill-rule:evenodd; clip-rule:evenodd" xmlns:xlink="http://www.w3.org/1999/xlink">
<g><path style="opacity:1" fill="#fefefe" d="M 234.5,-0.5 C 244.833,-0.5 255.167,-0.5 265.5,-0.5C 344.121,6.55191 406.955,41.5519 454,104.5C 478.914,140.075 494.081,179.408 499.5,222.5C 499.5,240.833 499.5,259.167 499.5,277.5C 483.501,380.997 426.501,451.163 328.5,488C 311.687,493.29 294.687,497.123 277.5,499.5C 259.167,499.5 240.833,499.5 222.5,499.5C 119.003,483.501 48.8366,426.501 12,328.5C 5.44776,307.827 1.28109,286.827 -0.5,265.5C -0.5,255.167 -0.5,244.833 -0.5,234.5C 6.55191,155.879 41.5519,93.0453 104.5,46C 143.685,18.883 187.018,3.38296 234.5,-0.5 Z"/></g>
<g><path style="opacity:1" fill="#040404" d="M 372.5,285.5 C 367.659,287.152 362.659,287.818 357.5,287.5C 349.468,285.809 343.801,281.142 340.5,273.5C 340.5,272.5 340.5,271.5 340.5,270.5C 327.323,270.171 314.323,270.505 301.5,271.5C 297.666,279.499 291.499,284.833 283,287.5C 282.5,297.494 282.334,307.494 282.5,317.5C 290.167,317.5 297.833,317.5 305.5,317.5C 309.745,304.372 318.745,298.872 332.5,301C 349.745,307.989 354.245,319.822 346,336.5C 333.941,349.47 321.608,349.803 309,337.5C 307.007,335.182 305.841,332.516 305.5,329.5C 297.833,329.5 290.167,329.5 282.5,329.5C 282.168,338.525 282.502,347.525 283.5,356.5C 297.486,362.474 302.319,372.807 298,387.5C 290.159,401.257 278.992,404.757 264.5,398C 253.848,388.88 251.682,378.047 258,365.5C 261.212,361.114 265.378,358.114 270.5,356.5C 271.5,333.176 271.833,309.843 271.5,286.5C 257.465,281.445 251.965,271.445 255,256.5C 257.202,250.394 261.035,245.727 266.5,242.5C 267.826,228.328 267.826,213.994 266.5,199.5C 265.893,199.624 265.56,199.957 265.5,200.5C 248.721,218.049 228.055,227.215 203.5,228C 194.167,239.254 182.833,241.588 169.5,235C 164.421,231.01 161.255,225.843 160,219.5C 152.756,214.927 146.09,209.593 140,203.5C 139.333,217.833 139.333,232.167 140,246.5C 152.402,255.68 154.735,267.013 147,280.5C 133.926,293.773 120.926,293.773 108,280.5C 100.266,266.994 102.599,255.66 115,246.5C 115.667,220.167 115.667,193.833 115,167.5C 107.535,162.576 103.702,155.576 103.5,146.5C 105.602,132.897 113.435,125.231 127,123.5C 139.424,124.258 147.424,130.592 151,142.5C 152.277,151.563 149.777,159.396 143.5,166C 148.469,178.792 156.636,188.958 168,196.5C 181.816,188.098 193.649,190.264 203.5,203C 232.26,202.278 252.26,188.611 263.5,162C 255.494,153.947 253.327,144.447 257,133.5C 265.827,119.877 277.66,116.711 292.5,124C 303.064,133.118 305.231,143.951 299,156.5C 297.305,159.695 294.805,162.028 291.5,163.5C 290.333,189.827 290.167,216.16 291,242.5C 297.331,246.501 301.165,252.168 302.5,259.5C 315.167,259.5 327.833,259.5 340.5,259.5C 341.577,252.236 345.577,247.069 352.5,244C 370.556,239.519 381.223,246.352 384.5,264.5C 384.353,273.805 380.353,280.805 372.5,285.5 Z"/></g>
<g><path style="opacity:1" fill="#f6f6f6" d="M 274.5,131.5 C 281.123,130.651 286.29,132.984 290,138.5C 291.563,152.278 285.73,157.445 272.5,154C 264.133,145.699 264.8,138.199 274.5,131.5 Z"/></g>
<g><path style="opacity:1" fill="#f7f7f7" d="M 123.5,135.5 C 136.672,134.858 141.505,140.858 138,153.5C 133.673,159.275 128.173,160.775 121.5,158C 113.01,149.612 113.677,142.112 123.5,135.5 Z"/></g>
<g><path style="opacity:1" fill="#606060" d="M 265.5,200.5 C 265.56,199.957 265.893,199.624 266.5,199.5C 267.826,213.994 267.826,228.328 266.5,242.5C 266.829,228.323 266.496,214.323 265.5,200.5 Z"/></g>
<g><path style="opacity:1" fill="#f7f7f7" d="M 178.5,203.5 C 185.018,202.123 190.185,204.123 194,209.5C 196.887,221.619 192.054,227.452 179.5,227C 172.985,223.791 170.485,218.624 172,211.5C 173.305,208.039 175.471,205.372 178.5,203.5 Z"/></g>
<g><path style="opacity:1" fill="#f7f7f7" d="M 274.5,253.5 C 285.695,253.515 289.862,258.849 287,269.5C 279.059,276.924 272.392,275.924 267,266.5C 265.918,260.086 268.418,255.752 274.5,253.5 Z"/></g>
<g><path style="opacity:1" fill="#f7f7f7" d="M 358.5,253.5 C 370.01,253.827 374.51,259.493 372,270.5C 368.457,275.462 363.624,277.296 357.5,276C 351.092,272.677 348.925,267.511 351,260.5C 352.742,257.254 355.242,254.921 358.5,253.5 Z"/></g>
<g><path style="opacity:1" fill="#f8f8f8" d="M 124.5,254.5 C 136.535,254.914 141.035,260.914 138,272.5C 133.803,278.471 128.303,279.971 121.5,277C 112.895,268.136 113.895,260.636 124.5,254.5 Z"/></g>
<g><path style="opacity:1" fill="#afafaf" d="M 301.5,271.5 C 314.323,270.505 327.323,270.171 340.5,270.5C 340.5,271.5 340.5,272.5 340.5,273.5C 327.748,271.548 314.748,270.882 301.5,271.5 Z"/></g>
<g><path style="opacity:1" fill="#aeaeae" d="M 372.5,285.5 C 371.653,286.966 370.32,287.8 368.5,288C 364.642,288.81 360.976,288.643 357.5,287.5C 362.659,287.818 367.659,287.152 372.5,285.5 Z"/></g>
<g><path style="opacity:1" fill="#f8f8f8" d="M 324.5,311.5 C 335.366,311.597 339.866,316.93 338,327.5C 334.677,333.908 329.511,336.075 322.5,334C 315.961,330.085 314.128,324.585 317,317.5C 319.134,314.847 321.634,312.847 324.5,311.5 Z"/></g>
<g><path style="opacity:1" fill="#f7f7f7" d="M 272.5,367.5 C 285.183,366.674 290.017,372.341 287,384.5C 278.509,393.251 271.509,392.251 266,381.5C 264.669,375.163 266.836,370.497 272.5,367.5 Z"/></g>
</svg>
